# xmcd
#
# Track frame offsets:
# 150
# 13211
# 23818
# 33079
# 50918
# 73618
# 87578
# 118449
#
# Disc length: 1792 seconds
#
#
# Revision: 0
# Processed by: cddbd v1.5PL3 Copyright (c) Steve Scherf et al.
# Submitted via: FreeRIP 2.11 
#
DISCID=7006fe08
DTITLE=Blues Factory - Urban Runner
DYEAR=1997
DGENRE=
TTITLE0=Mary had a little lamb
TTITLE1=You'll be mine
TTITLE2=Stupidity
TTITLE3=Cold shot
TTITLE4=Fool for your sotckings
TTITLE5=Honey don't
TTITLE6=All your love I miss loving
TTITLE7=Empty arms
EXTD=
EXTT0=
EXTT1=
EXTT2=
EXTT3=
EXTT4=
EXTT5=
EXTT6=
EXTT7=
PLAYORDER=
